<svg width="186" height="28" viewBox="0 0 186 28" fill="none" xmlns="http://www.w3.org/2000/svg">
<path d="M47.1758 13.4404H61.0049V28H46.4287V14.6152L23.4424 27.8164V14.6152L0.457031 27.8164V13.627L24.1904 0V13.1973L47.1758 0V13.4404Z" fill="#171616"/>
<path d="M167.413 19.6917C167.365 19.2644 167.167 18.9335 166.818 18.6988C166.469 18.4611 166.029 18.3422 165.5 18.3422C165.121 18.3422 164.793 18.4024 164.516 18.5228C164.239 18.6401 164.024 18.8026 163.871 19.0102C163.72 19.2148 163.645 19.4479 163.645 19.7097C163.645 19.9293 163.696 20.1189 163.798 20.2784C163.904 20.4378 164.041 20.5717 164.209 20.68C164.381 20.7853 164.564 20.8741 164.76 20.9463C164.955 21.0155 165.143 21.0727 165.324 21.1178L166.226 21.3525C166.521 21.4247 166.824 21.5225 167.134 21.6458C167.444 21.7692 167.731 21.9317 167.996 22.1333C168.26 22.3348 168.474 22.5846 168.636 22.8824C168.802 23.1803 168.885 23.5368 168.885 23.952C168.885 24.4756 168.749 24.9404 168.479 25.3466C168.211 25.7528 167.821 26.0732 167.31 26.3079C166.801 26.5426 166.186 26.6599 165.464 26.6599C164.772 26.6599 164.173 26.5501 163.668 26.3305C163.162 26.1108 162.766 25.7994 162.481 25.3962C162.195 24.9901 162.037 24.5087 162.007 23.952H163.406C163.433 24.286 163.541 24.5643 163.731 24.787C163.923 25.0066 164.169 25.1706 164.466 25.2789C164.767 25.3842 165.097 25.4369 165.455 25.4369C165.849 25.4369 166.199 25.3752 166.506 25.2518C166.816 25.1255 167.06 24.951 167.237 24.7283C167.415 24.5026 167.504 24.2394 167.504 23.9385C167.504 23.6647 167.425 23.4406 167.269 23.2661C167.116 23.0915 166.906 22.9471 166.642 22.8328C166.38 22.7185 166.084 22.6177 165.753 22.5304L164.66 22.2325C163.92 22.031 163.334 21.7346 162.9 21.3435C162.47 20.9523 162.255 20.4348 162.255 19.7909C162.255 19.2584 162.399 18.7935 162.688 18.3964C162.977 17.9992 163.368 17.6908 163.862 17.4712C164.355 17.2486 164.912 17.1372 165.531 17.1372C166.157 17.1372 166.709 17.247 167.188 17.4667C167.669 17.6863 168.048 17.9887 168.325 18.3738C168.602 18.7559 168.746 19.1952 168.758 19.6917H167.413Z" fill="black"/>
<path d="M158.945 17.2634H160.344V23.3426C160.344 23.9894 160.192 24.5626 159.888 25.0621C159.584 25.5585 159.157 25.9496 158.606 26.2355C158.056 26.5183 157.41 26.6597 156.67 26.6597C155.933 26.6597 155.289 26.5183 154.739 26.2355C154.188 25.9496 153.761 25.5585 153.457 25.0621C153.153 24.5626 153.001 23.9894 153.001 23.3426V17.2634H154.396V23.2297C154.396 23.648 154.487 24.0195 154.671 24.3445C154.857 24.6694 155.121 24.9252 155.461 25.1117C155.801 25.2952 156.204 25.387 156.67 25.387C157.14 25.387 157.544 25.2952 157.884 25.1117C158.227 24.9252 158.489 24.6694 158.67 24.3445C158.853 24.0195 158.945 23.648 158.945 23.2297V17.2634Z" fill="black"/>
<path d="M144.811 26.5063V17.2634H148.106C148.822 17.2634 149.416 17.3867 149.888 17.6335C150.364 17.8802 150.719 18.2217 150.953 18.6579C151.188 19.0912 151.305 19.5922 151.305 20.1608C151.305 20.7265 151.187 21.2244 150.949 21.6547C150.714 22.0819 150.359 22.4144 149.884 22.6521C149.411 22.8898 148.817 23.0086 148.101 23.0086H145.605V21.8081H147.975C148.426 21.8081 148.793 21.7434 149.076 21.614C149.362 21.4847 149.571 21.2966 149.703 21.0499C149.836 20.8032 149.902 20.5068 149.902 20.1608C149.902 19.8118 149.834 19.5094 149.699 19.2537C149.566 18.9979 149.357 18.8024 149.071 18.667C148.789 18.5286 148.417 18.4594 147.957 18.4594H146.206V26.5063H144.811ZM149.374 22.3361L151.657 26.5063H150.069L147.83 22.3361H149.374Z" fill="black"/>
<path d="M136.682 26.5063V17.2634H139.976C140.695 17.2634 141.291 17.3943 141.763 17.656C142.236 17.9178 142.589 18.2758 142.824 18.7302C143.059 19.1815 143.176 19.6899 143.176 20.2556C143.176 20.8242 143.057 21.3357 142.819 21.7901C142.585 22.2414 142.23 22.5994 141.754 22.8642C141.282 23.1259 140.688 23.2568 139.972 23.2568H137.706V22.0744H139.845C140.3 22.0744 140.668 21.9962 140.951 21.8397C141.234 21.6802 141.441 21.4636 141.574 21.1898C141.706 20.916 141.772 20.6046 141.772 20.2556C141.772 19.9066 141.706 19.5967 141.574 19.3259C141.441 19.0551 141.232 18.843 140.946 18.6895C140.664 18.5361 140.291 18.4594 139.827 18.4594H138.076V26.5063H136.682Z" fill="black"/>
<path d="M127.268 17.2634H128.852L131.267 21.4651H131.366L133.78 17.2634H135.364L132.011 22.8777V26.5063H130.621V22.8777L127.268 17.2634Z" fill="black"/>
<path d="M126.313 20.2693H124.905C124.851 19.9685 124.75 19.7037 124.603 19.475C124.455 19.2464 124.275 19.0523 124.061 18.8928C123.847 18.7334 123.608 18.613 123.343 18.5318C123.082 18.4505 122.803 18.4099 122.509 18.4099C121.976 18.4099 121.499 18.5438 121.078 18.8116C120.66 19.0794 120.329 19.472 120.085 19.9895C119.844 20.507 119.724 21.1389 119.724 21.885C119.724 22.6372 119.844 23.2721 120.085 23.7896C120.329 24.3071 120.661 24.6982 121.082 24.963C121.504 25.2278 121.977 25.3601 122.504 25.3601C122.796 25.3601 123.073 25.321 123.334 25.2428C123.599 25.1616 123.838 25.0427 124.052 24.8863C124.266 24.7298 124.446 24.5388 124.594 24.3131C124.744 24.0844 124.848 23.8227 124.905 23.5278L126.313 23.5323C126.238 23.9866 126.092 24.4049 125.875 24.787C125.662 25.1661 125.386 25.494 125.049 25.7708C124.715 26.0446 124.333 26.2567 123.903 26.4072C123.473 26.5576 123.003 26.6328 122.495 26.6328C121.695 26.6328 120.982 26.4433 120.356 26.0642C119.73 25.6821 119.236 25.136 118.875 24.4259C118.517 23.7159 118.338 22.8689 118.338 21.885C118.338 20.8982 118.519 20.0512 118.88 19.3441C119.241 18.6341 119.734 18.0895 120.36 17.7104C120.986 17.3283 121.698 17.1372 122.495 17.1372C122.985 17.1372 123.443 17.2079 123.867 17.3493C124.294 17.4877 124.678 17.6923 125.018 17.9631C125.358 18.2309 125.639 18.5589 125.862 18.947C126.084 19.3321 126.235 19.7729 126.313 20.2693Z" fill="black"/>
<path d="M113.242 17.2634V26.5063H111.847V17.2634H113.242Z" fill="black"/>
<path d="M100.355 26.5063V17.2634H103.649C104.368 17.2634 104.964 17.3943 105.436 17.656C105.909 17.9178 106.262 18.2758 106.497 18.7302C106.732 19.1815 106.849 19.6899 106.849 20.2556C106.849 20.8242 106.73 21.3357 106.492 21.7901C106.258 22.2414 105.903 22.5994 105.427 22.8642C104.955 23.1259 104.361 23.2568 103.645 23.2568H101.379V22.0744H103.518C103.973 22.0744 104.341 21.9962 104.624 21.8397C104.907 21.6802 105.114 21.4636 105.247 21.1898C105.379 20.916 105.445 20.6046 105.445 20.2556C105.445 19.9066 105.379 19.5967 105.247 19.3259C105.114 19.0551 104.905 18.843 104.62 18.6895C104.337 18.5361 103.964 18.4594 103.5 18.4594H101.749V26.5063H100.355Z" fill="black"/>
<path d="M89.7405 26.5063L87.177 17.2634H88.6438L90.4445 24.4212H90.5303L92.4032 17.2634H93.8564L95.7294 24.4257H95.8151L97.6113 17.2634H99.0826L96.5147 26.5063H95.1111L93.1659 19.5831H93.0937L91.1486 26.5063H89.7405Z" fill="black"/>
<path d="M76.5243 17.2634H78.2167L81.1593 24.4483H81.2676L84.2101 17.2634H85.9026V26.5063H84.5757V19.8178H84.49L81.764 26.4927H80.6628L77.9369 19.8133H77.8512V26.5063H76.5243V17.2634Z" fill="black"/>
<path d="M74.8555 20.2693H73.4475C73.3933 19.9685 73.2925 19.7037 73.1451 19.475C72.9976 19.2464 72.8171 19.0523 72.6035 18.8928C72.3899 18.7334 72.1507 18.613 71.8859 18.5318C71.6242 18.4505 71.3458 18.4099 71.051 18.4099C70.5184 18.4099 70.0415 18.5438 69.6203 18.8116C69.2021 19.0794 68.8711 19.472 68.6274 19.9895C68.3867 20.507 68.2664 21.1389 68.2664 21.885C68.2664 22.6372 68.3867 23.2721 68.6274 23.7896C68.8711 24.3071 69.2036 24.6982 69.6248 24.963C70.0461 25.2278 70.5199 25.3601 71.0465 25.3601C71.3383 25.3601 71.6151 25.321 71.8769 25.2428C72.1417 25.1616 72.3809 25.0427 72.5945 24.8863C72.8081 24.7298 72.9886 24.5388 73.136 24.3131C73.2865 24.0844 73.3903 23.8227 73.4475 23.5278L74.8555 23.5323C74.7803 23.9866 74.6344 24.4049 74.4178 24.787C74.2042 25.1661 73.9289 25.494 73.5919 25.7708C73.2579 26.0446 72.8758 26.2567 72.4455 26.4072C72.0153 26.5576 71.5459 26.6328 71.0374 26.6328C70.2371 26.6328 69.524 26.4433 68.8982 26.0642C68.2724 25.6821 67.779 25.136 67.4179 24.4259C67.0599 23.7159 66.8809 22.8689 66.8809 21.885C66.8809 20.8982 67.0614 20.0512 67.4224 19.3441C67.7835 18.6341 68.2769 18.0895 68.9027 17.7104C69.5286 17.3283 70.2401 17.1372 71.0374 17.1372C71.5279 17.1372 71.9852 17.2079 72.4094 17.3493C72.8367 17.4877 73.2203 17.6923 73.5603 17.9631C73.9003 18.2309 74.1816 18.5589 74.4042 18.947C74.6269 19.3321 74.7773 19.7729 74.8555 20.2693Z" fill="black"/>
</svg>
